# xmcd
#
# Track frame offsets:
#	150
#	15877
#	35485
#	52801
#	72401
#
# Disc length: 1100 seconds
#
# Revision: 1
# Processed by: cddbd v1.5PL3 Copyright (c) Steve Scherf et al.
# Submitted via: CDex 1.50Beta5
#
DISCID=33044a05
DTITLE=AK-UNIT - 風華 -featuring Key-
DYEAR=1900
DGENRE=
TTITLE0=夏影 -summer lights-(Tropicana ORIGINAL MIX)
TTITLE1=朝影(Heaven's Door MIX)
TTITLE2=夜想 -nocturne-(air club trance mix)
TTITLE3=約束(CHILL OUT MIX)
TTITLE4=夏影 -summer lights-(reMIX AGAIN)
EXTD=
EXTT0=
EXTT1=
EXTT2=
EXTT3=
EXTT4=
PLAYORDER=
